<?xml version="1.0" encoding="UTF-8"?>
<svg id="Layer_2" data-name="Layer 2" xmlns="http://www.w3.org/2000/svg" xmlns:xlink="http://www.w3.org/1999/xlink" viewBox="0 0 762.91 222.07">
  <defs>
    <style>
      .cls-1 {
        fill: url(#linear-gradient-8);
      }

      .cls-2 {
        fill: url(#linear-gradient-7);
      }

      .cls-3 {
        fill: url(#linear-gradient-5);
      }

      .cls-4 {
        fill: url(#linear-gradient-6);
      }

      .cls-5 {
        fill: url(#linear-gradient-9);
      }

      .cls-6 {
        fill: url(#linear-gradient-4);
      }

      .cls-7 {
        fill: url(#linear-gradient-3);
      }

      .cls-8 {
        fill: url(#linear-gradient-2);
      }

      .cls-9 {
        fill: url(#linear-gradient);
      }

      .cls-10 {
        fill: #fff;
      }

      .cls-11 {
        fill: url(#linear-gradient-10);
      }

      .cls-12 {
        fill: url(#linear-gradient-11);
      }

      .cls-13 {
        fill: url(#linear-gradient-12);
      }
    </style>
    <linearGradient id="linear-gradient" x1="774.99" y1="43.71" x2="670.25" y2="43.71" gradientUnits="userSpaceOnUse">
      <stop offset="0" stop-color="#00e92c"/>
      <stop offset="1" stop-color="aqua"/>
    </linearGradient>
    <linearGradient id="linear-gradient-2" x1="779.11" y1="209.99" x2="58.3" y2="209.99" gradientUnits="userSpaceOnUse">
      <stop offset="0" stop-color="#00eb29"/>
      <stop offset="1" stop-color="#00f6ff"/>
    </linearGradient>
    <linearGradient id="linear-gradient-3" x1="771.44" y1="210.24" x2="50.63" y2="210.24" xlink:href="#linear-gradient-2"/>
    <linearGradient id="linear-gradient-4" x1="767" y1="209.99" x2="46.19" y2="209.99" xlink:href="#linear-gradient-2"/>
    <linearGradient id="linear-gradient-5" x1="760.82" y1="209.99" x2="40.01" y2="209.99" xlink:href="#linear-gradient-2"/>
    <linearGradient id="linear-gradient-6" x1="753.75" y1="206.12" x2="32.94" y2="206.12" xlink:href="#linear-gradient-2"/>
    <linearGradient id="linear-gradient-7" x1="747.57" y1="204.76" x2="26.76" y2="204.76" xlink:href="#linear-gradient-2"/>
    <linearGradient id="linear-gradient-8" x1="741.89" y1="210.49" x2="21.08" y2="210.49" xlink:href="#linear-gradient-2"/>
    <linearGradient id="linear-gradient-9" x1="737.4" y1="209.99" x2="16.58" y2="209.99" xlink:href="#linear-gradient-2"/>
    <linearGradient id="linear-gradient-10" x1="694.26" y1="204.19" x2="-26.56" y2="204.19" xlink:href="#linear-gradient-2"/>
    <linearGradient id="linear-gradient-11" x1="682.14" y1="210.24" x2="-38.68" y2="210.24" xlink:href="#linear-gradient-2"/>
    <linearGradient id="linear-gradient-12" x1="669.42" y1="203.94" x2="-51.39" y2="203.94" xlink:href="#linear-gradient-2"/>
  </defs>
  <g id="Layer_1-2" data-name="Layer 1">
    <g>
      <g>
        <g>
          <path class="cls-10" d="M311.7,53.81v63.53c-14.49,14.49-31.96,23.82-64.92,23.82-36.13,0-73.46-19.06-73.46-70.68S211.44,0,248.77,0s54.79,16.08,58.76,20.45l-29.18,30.57c-4.37-4.37-14.1-9.13-26.6-9.13-14.29,0-26.4,9.53-26.4,28.39s10.13,29.38,26.8,29.38c8.34,0,15.09-1.59,19.26-5.36v-4.96h-25.02v-35.54h65.32Z"/>
          <path class="cls-10" d="M431.12,0v40.1h-52.17v10.64h49.51v39.07h-49.51v10.84h52.18v40.61h-104.75V0h104.74Z"/>
          <path class="cls-10" d="M501.66,0l33.14,69.76s-1.23-15.55-1.23-21.89V0h51.76v141.26h-55.85l-33.14-70.27s1.23,14.52,1.23,22.3v47.98h-51.76V0h55.85Z"/>
        </g>
        <path class="cls-10" d="M56.26,141.27H0L101.33,0h57.05L56.26,141.27ZM107.71,0h50.67s.26,141.26.26,141.26h-50.93V0Z"/>
        <polygon class="cls-9" points="600.02 0 600.02 42.34 659.28 42.34 617.61 87.42 682.03 87.42 762.91 0 600.02 0"/>
        <polygon class="cls-10" points="680.89 53.85 600.02 141.27 636.54 141.26 762.91 141.26 762.91 98.93 703.65 98.93 745.32 53.85 680.89 53.85"/>
      </g>
      <g>
        <path class="cls-8" d="M74.61,197.91c3.57,0,6.75,1.34,8.93,3.72l-3.42,2.88c-1.39-1.39-3.37-2.18-5.51-2.18-4.17,0-7.79,2.93-7.79,7.59s3.62,7.79,7.79,7.79c2.13,0,4.12-.84,5.51-2.28l3.47,2.88c-2.18,2.38-5.41,3.77-8.98,3.77-6.6,0-12.25-4.81-12.25-12.15s5.66-12.01,12.25-12.01Z"/>
        <path class="cls-7" d="M128.82,222.07h-4.51v-23.17h4.51v5.21c1.19-4.12,3.42-5.71,6.45-5.71,1.64,0,3.37.45,4.02.89l-.69,4.22c-1.24-.6-2.48-.79-3.42-.79-4.47,0-6.35,4.76-6.35,10.91v8.43Z"/>
        <path class="cls-6" d="M203.33,211.7h-18.8c.55,3.92,3.52,6.3,7.49,6.3,2.78,0,5.31-1.24,6.65-3.57,1.19.55,2.63.94,3.87,1.49-1.99,4.12-6.15,6.15-10.67,6.15-6.6,0-11.86-4.81-11.86-12.15s5.26-12.01,11.86-12.01,11.51,4.66,11.51,12.01c0,.55,0,1.24-.05,1.79ZM198.91,208.18c-.55-3.92-3.27-6.2-7.05-6.2s-6.8,2.28-7.34,6.2h14.39Z"/>
        <path class="cls-3" d="M263.99,218c-1.54,2.58-4.91,4.07-8.14,4.07-6.35,0-11.76-4.76-11.76-12.11s5.41-12.06,11.76-12.06c3.22,0,6.55,1.34,8.14,3.97v-3.47h4.47v23.17h-4.47v-3.57ZM256.25,202.33c-4.17,0-7.54,3.03-7.54,7.59s3.37,7.74,7.54,7.74,7.69-2.83,7.69-7.74-3.92-7.59-7.69-7.59Z"/>
        <path class="cls-4" d="M322.76,198.9v3.82h-4.91v19.35h-4.51v-19.35h-4.17v-3.82h4.17v-8.73h4.51v8.73h4.91Z"/>
        <path class="cls-2" d="M366.61,187.44c1.74,0,3.13,1.19,3.13,2.93s-1.39,2.93-3.13,2.93-3.13-1.19-3.13-2.93,1.39-2.93,3.13-2.93ZM368.84,222.07h-4.47v-23.17h4.47v23.17Z"/>
        <path class="cls-1" d="M415.21,198.9l7.05,17.41,7-17.41h4.81l-9.67,23.17h.05-4.37l-9.62-23.17h4.76Z"/>
        <path class="cls-5" d="M498.1,211.7h-18.8c.54,3.92,3.52,6.3,7.49,6.3,2.78,0,5.31-1.24,6.65-3.57,1.19.55,2.63.94,3.87,1.49-1.98,4.12-6.15,6.15-10.67,6.15-6.6,0-11.86-4.81-11.86-12.15s5.26-12.01,11.86-12.01,11.51,4.66,11.51,12.01c0,.55,0,1.24-.05,1.79ZM493.68,208.18c-.55-3.92-3.28-6.2-7.05-6.2s-6.8,2.28-7.34,6.2h14.39Z"/>
        <path class="cls-11" d="M563.53,222.07h-4.51v-35.77h4.51v16.07c1.34-2.78,5.16-3.97,7.64-3.97,5.8,0,9.43,3.72,9.38,10.27v13.4h-4.51v-13.1c0-3.82-2.28-6.15-5.46-6.15s-7.05,1.79-7.05,6.75v12.5Z"/>
        <path class="cls-12" d="M634.18,198.41h4.51v23.17h-4.51v-3.47c-1.44,2.78-4.66,3.97-7.19,3.97-5.8,0-8.98-3.72-8.93-10.27v-13.4h4.51v13.1c0,3.92,1.89,6.15,5.06,6.15s6.55-1.79,6.55-6.75v-12.5Z"/>
        <path class="cls-13" d="M680.71,221.58h-4.51v-35.77h4.51v16.07c1.54-2.63,4.76-3.97,8.14-3.97,6.4,0,11.71,4.66,11.71,12.06s-5.41,12.11-11.76,12.11c-3.23,0-6.55-1.49-8.09-4.07v3.57ZM688.45,217.66c4.17,0,7.49-3.18,7.49-7.74s-3.32-7.59-7.49-7.59c-3.77,0-7.69,2.63-7.69,7.59s3.57,7.74,7.69,7.74Z"/>
      </g>
    </g>
  </g>
</svg>