<?xml version="1.0" encoding="UTF-8"?>
<svg xmlns="http://www.w3.org/2000/svg" viewBox="0 0 762.91 141.27">
  <g fill="#000000">
    <path d="M311.7,53.81v63.53c-14.49,14.49-31.96,23.82-64.92,23.82-36.13,0-73.46-19.06-73.46-70.68S211.44,0,248.77,0s54.79,16.08,58.76,20.45l-29.18,30.57c-4.37-4.37-14.1-9.13-26.6-9.13-14.29,0-26.4,9.53-26.4,28.39s10.13,29.38,26.8,29.38c8.34,0,15.09-1.59,19.26-5.36v-4.96h-25.02v-35.54h65.32Z"/>
    <path d="M431.12,0v40.1h-52.17v10.64h49.51v39.07h-49.51v10.84h52.18v40.61h-104.75V0h104.74Z"/>
    <path d="M501.66,0l33.14,69.76s-1.23-15.55-1.23-21.89V0h51.76v141.26h-55.85l-33.14-70.27s1.23,14.52,1.23,22.3v47.98h-51.76V0h55.85Z"/>
    <path d="M56.26,141.27H0L101.33,0h57.05L56.26,141.27ZM107.71,0h50.67s.26,141.26.26,141.26h-50.93V0Z"/>
    <polygon points="600.02 0 600.02 42.34 659.28 42.34 617.61 87.42 682.03 87.42 762.91 0 600.02 0"/>
    <polygon points="680.89 53.85 600.02 141.27 636.54 141.26 762.91 141.26 762.91 98.93 703.65 98.93 745.32 53.85 680.89 53.85"/>
  </g>
</svg>
