<?xml version="1.0" encoding="UTF-8"?>
<svg id="Layer_1" data-name="Layer 1" xmlns="http://www.w3.org/2000/svg" viewBox="0 0 512 512">
  <defs>
    <style>
      .cls-1 {
        fill: #0d0074;
      }

      .cls-2 {
        fill: #acf3db;
      }
    </style>
  </defs>
  <polygon class="cls-2" points="200.03 173.9 200.03 229.86 99.92 229.86 99.92 285.81 43.97 285.81 43.97 229.86 99.92 173.9 200.03 173.9"/>
  <polygon class="cls-1" points="200.03 246.15 200.03 302.1 100.41 302.1 100.41 338.1 44.46 338.1 44.46 302.1 100.41 246.15 200.03 246.15"/>
  <g>
    <path class="cls-1" d="M235.59,176.81h37.03v7.45h-28.15v22.85h26.01v7.34h-26.01v31.11h-8.87v-68.75Z"/>
    <path class="cls-1" d="M296.17,176.81v68.75h-8.87v-68.75h8.87Z"/>
    <path class="cls-1" d="M313.71,177.73c3.88-.82,10-1.43,16.22-1.43,8.87,0,14.59,1.53,18.87,5,3.57,2.65,5.71,6.73,5.71,12.14,0,6.63-4.39,12.44-11.63,15.1v.2c6.53,1.63,14.18,7.04,14.18,17.24,0,5.92-2.35,10.4-5.81,13.77-4.79,4.39-12.55,6.43-23.77,6.43-6.12,0-10.81-.41-13.77-.82v-67.62ZM322.59,205.88h8.06c9.38,0,14.89-4.9,14.89-11.53,0-8.06-6.12-11.22-15.1-11.22-4.08,0-6.43.31-7.85.61v22.13ZM322.59,238.83c1.73.31,4.28.41,7.45.41,9.18,0,17.65-3.37,17.65-13.36,0-9.39-8.06-13.26-17.75-13.26h-7.34v26.21Z"/>
    <path class="cls-1" d="M406.63,213.33h-26.72v24.79h29.78v7.45h-38.66v-68.75h37.13v7.45h-28.25v21.72h26.72v7.34Z"/>
    <path class="cls-1" d="M423.26,177.73c4.49-.92,10.91-1.43,17.03-1.43,9.49,0,15.61,1.73,19.89,5.61,3.47,3.06,5.41,7.75,5.41,13.06,0,9.08-5.71,15.1-12.95,17.54v.31c5.3,1.84,8.47,6.73,10.1,13.87,2.24,9.59,3.88,16.22,5.3,18.87h-9.18c-1.12-1.94-2.65-7.85-4.59-16.42-2.04-9.49-5.71-13.06-13.77-13.36h-8.36v29.78h-8.87v-67.83ZM432.13,209.04h9.08c9.49,0,15.5-5.2,15.5-13.06,0-8.87-6.43-12.75-15.81-12.85-4.28,0-7.34.41-8.77.82v25.09Z"/>
  </g>
  <g>
    <path class="cls-1" d="M232.6,303.7v-47.28h4.12l32.62,41.07h-2.16v-41.07h4.93v47.28h-4.12l-32.56-41.07h2.16v41.07h-5Z"/>
    <path class="cls-1" d="M292.51,299.38h28.44v4.32h-33.44v-47.28h32.42v4.32h-27.42v38.64ZM291.97,277.56h24.99v4.26h-24.99v-4.26Z"/>
    <path class="cls-1" d="M341.88,303.7v-42.96h-16.62v-4.32h38.23v4.32h-16.62v42.96h-5Z"/>
  </g>
</svg>