<?xml version="1.0" encoding="UTF-8"?>
<svg id="Layer_1" data-name="Layer 1" xmlns="http://www.w3.org/2000/svg" viewBox="0 0 512 512">
  <defs>
    <style>
      .cls-1 {
        fill: #010101;
      }
    </style>
  </defs>
  <g>
    <rect class="cls-1" x="119.84" y="40" width="51.38" height="51.67"/>
    <polygon class="cls-1" points="186.19 91.67 340.78 91.67 340.78 314.03 261.69 262.28 171.23 262.28 171.23 106.97 119.85 106.97 119.85 313.8 246.39 313.8 340.78 375.76 340.87 314.09 392.16 314.09 392.16 40.01 186.19 40.01 186.19 91.67"/>
  </g>
  <g>
    <path class="cls-1" d="M275.99,433.56c-2.38,0-4.33.81-5.85,2.42-1.52,1.61-2.29,3.77-2.29,6.48s.76,4.87,2.29,6.48c1.52,1.61,3.48,2.42,5.85,2.42s4.33-.81,5.85-2.42c1.52-1.61,2.29-3.77,2.29-6.48s-.76-4.87-2.29-6.48c-1.52-1.61-3.48-2.42-5.85-2.42Z"/>
    <path class="cls-1" d="M229,448.86c0,1.19.47,2.14,1.4,2.84.93.7,2.21,1.05,3.83,1.05s2.99-.37,4.22-1.11c1.23-.74,2.1-1.82,2.61-3.26v-3.29h-6.36c-3.8,0-5.7,1.25-5.7,3.76h0Z"/>
    <path class="cls-1" d="M119.84,401.22v70.78h272.31v-70.78H119.84ZM216.94,458.53h-30.48v-41.82h9.63v33.93h20.85v7.89ZM250.33,458.53h-8.67v-4c-1.74,2.99-4.99,4.48-9.74,4.48-2.46,0-4.59-.42-6.39-1.25-1.8-.84-3.18-1.99-4.13-3.46-.95-1.47-1.43-3.15-1.43-5.02,0-2.99,1.12-5.34,3.36-7.05,2.24-1.71,5.69-2.57,10.37-2.57h7.37c0-2.03-.62-3.59-1.84-4.69-1.23-1.09-3.07-1.64-5.53-1.64-1.7,0-3.38.27-5.02.81-1.65.54-3.04,1.26-4.19,2.18l-3.33-6.51c1.74-1.23,3.83-2.19,6.27-2.87,2.44-.68,4.94-1.02,7.52-1.02,4.95,0,8.75,1.19,11.41,3.56,2.65,2.37,3.98,5.94,3.98,10.72v18.34h0ZM291.44,451.16c-1.39,2.49-3.3,4.42-5.73,5.8-2.44,1.38-5.14,2.06-8.11,2.06-4.4,0-7.74-1.39-10.04-4.18v3.7h-8.85v-44.33h9.27v15.59c2.34-2.59,5.55-3.88,9.63-3.88,2.97,0,5.67.69,8.11,2.06,2.44,1.38,4.35,3.31,5.73,5.8,1.39,2.49,2.08,5.39,2.08,8.69s-.69,6.2-2.08,8.69h0ZM323.76,454.11c-1.19,1.55-2.92,2.76-5.2,3.61-2.28.86-4.98,1.28-8.11,1.28-2.65,0-5.25-.33-7.78-.99-2.53-.66-4.56-1.48-6.06-2.48l3.09-6.69c1.43.92,3.15,1.66,5.17,2.24,2.02.58,4,.87,5.94.87,3.92,0,5.88-.98,5.88-2.93,0-.92-.53-1.57-1.6-1.97-1.07-.4-2.71-.74-4.93-1.02-2.61-.4-4.77-.86-6.48-1.37-1.7-.52-3.18-1.43-4.43-2.75-1.25-1.32-1.87-3.19-1.87-5.62,0-2.03.58-3.83,1.75-5.41,1.17-1.57,2.87-2.8,5.11-3.67,2.24-.88,4.88-1.32,7.93-1.32,2.26,0,4.5.25,6.74.75,2.24.5,4.09,1.19,5.55,2.06l-3.09,6.63c-2.81-1.59-5.88-2.39-9.21-2.39-1.98,0-3.47.28-4.46.84s-1.48,1.28-1.48,2.15c0,1,.53,1.69,1.6,2.09,1.07.4,2.77.78,5.11,1.13,2.61.44,4.75.91,6.42,1.4,1.66.5,3.11,1.4,4.34,2.72,1.23,1.32,1.84,3.15,1.84,5.5,0,1.99-.6,3.76-1.78,5.32h0Z"/>
  </g>
</svg>