<?xml version="1.0" encoding="UTF-8"?>
<svg id="Layer_1" data-name="Layer 1" xmlns="http://www.w3.org/2000/svg" viewBox="0 0 512 512">
  <defs>
    <style>
      .cls-1 {
        fill: #020202;
      }
    </style>
  </defs>
  <rect class="cls-1" x="119.78" y="40" width="51.41" height="51.69"/>
  <polygon class="cls-1" points="186.16 91.69 340.81 91.69 340.81 314.15 261.69 262.37 171.19 262.37 171.19 106.99 119.79 106.99 119.79 313.91 246.38 313.91 340.81 375.89 340.91 314.2 392.21 314.2 392.21 40.01 186.16 40.01 186.16 91.69"/>
  <path class="cls-1" d="M192.24,432.12c1.08,1.94,1.62,4.14,1.62,6.62s-.54,4.68-1.62,6.62c-1.08,1.94-2.56,3.45-4.45,4.53-1.89,1.09-4.02,1.63-6.36,1.63s-4.46-.54-6.35-1.63c-1.9-1.08-3.38-2.59-4.46-4.53s-1.62-4.15-1.62-6.62.54-4.68,1.62-6.62,2.56-3.45,4.46-4.54c1.89-1.08,4-1.63,6.35-1.63s4.47.55,6.36,1.63c1.89,1.09,3.37,2.6,4.45,4.54Z"/>
  <path class="cls-1" d="M119.79,401.19v70.81h272.43v-70.81H119.79ZM200.33,449.32c-1.9,3.14-4.48,5.61-7.78,7.39-3.29,1.79-7,2.69-11.12,2.69s-7.84-.9-11.15-2.69c-3.31-1.78-5.9-4.25-7.78-7.39-1.87-3.14-2.81-6.67-2.81-10.58s.94-7.45,2.81-10.59c1.88-3.14,4.47-5.6,7.78-7.39,3.31-1.79,7.03-2.68,11.15-2.68s7.83.89,11.12,2.68c3.3,1.79,5.88,4.25,7.78,7.39,1.89,3.14,2.84,6.67,2.84,10.59s-.95,7.44-2.84,10.58ZM240.68,458.71h-8.85v-16.21c0-2.43-.53-4.25-1.59-5.45s-2.59-1.79-4.6-1.79c-2.23,0-4.01.69-5.34,2.08-1.32,1.39-1.98,3.45-1.98,6.19v15.18h-8.86v-30.7h8.46v3.59c1.17-1.29,2.63-2.29,4.37-2.99,1.74-.71,3.65-1.06,5.74-1.06,3.78,0,6.83,1.15,9.16,3.43,2.33,2.28,3.49,5.66,3.49,10.15v17.58ZM257.53,458.71h-8.85v-42.35h8.85v42.35ZM274.62,458.71h-8.86v-30.7h8.86v30.7ZM274.17,422.27c-1.02.97-2.35,1.46-3.98,1.46s-2.95-.48-3.97-1.43-1.54-2.13-1.54-3.54.52-2.58,1.54-3.54c1.02-.95,2.34-1.42,3.97-1.42s2.96.45,3.98,1.37c1.02.91,1.53,2.05,1.53,3.42,0,1.49-.51,2.71-1.53,3.68ZM314.06,458.71h-8.85v-16.21c0-2.43-.53-4.25-1.59-5.45-1.06-1.2-2.59-1.79-4.6-1.79-2.23,0-4.01.69-5.33,2.08-1.33,1.39-1.99,3.45-1.99,6.19v15.18h-8.85v-30.7h8.45v3.59c1.18-1.29,2.63-2.29,4.37-2.99,1.75-.71,3.66-1.06,5.74-1.06,3.78,0,6.83,1.15,9.16,3.43,2.33,2.28,3.49,5.66,3.49,10.15v17.58ZM352.14,445.87h-23.1c.42,1.9,1.4,3.41,2.96,4.51,1.55,1.1,3.47,1.65,5.79,1.65,1.58,0,2.99-.23,4.22-.71,1.23-.47,2.38-1.23,3.44-2.25l4.71,5.13c-2.88,3.31-7.08,4.97-12.6,4.97-3.45,0-6.49-.68-9.14-2.03-2.65-1.35-4.69-3.22-6.13-5.62-1.44-2.4-2.15-5.11-2.15-8.16s.7-5.71,2.12-8.13c1.42-2.42,3.37-4.3,5.85-5.65,2.47-1.35,5.25-2.03,8.31-2.03s5.69.65,8.12,1.94c2.42,1.3,4.32,3.15,5.7,5.57,1.38,2.41,2.07,5.22,2.07,8.41,0,.12-.05.92-.17,2.4ZM336.48,434.29c-2.01,0-3.69.57-5.05,1.71-1.37,1.14-2.2,2.7-2.5,4.68h15.04c-.3-1.94-1.13-3.49-2.5-4.65-1.36-1.16-3.03-1.74-4.99-1.74Z"/>
</svg>