<?xml version="1.0" encoding="UTF-8"?>
<svg id="Layer_1" data-name="Layer 1" xmlns="http://www.w3.org/2000/svg" viewBox="0 0 512 512">
  <defs>
    <style>
      .cls-1 {
        fill: #020202;
      }

      .cls-2 {
        fill: #fff;
      }
    </style>
  </defs>
  <rect class="cls-1" x="119.79" y="40" width="51.41" height="51.69"/>
  <polygon class="cls-1" points="186.16 91.69 340.81 91.69 340.81 314.14 261.7 262.37 171.2 262.37 171.2 106.99 119.79 106.99 119.79 313.91 246.38 313.91 340.81 375.89 340.91 314.2 392.21 314.2 392.21 40 186.16 40 186.16 91.69"/>
  <rect class="cls-1" x="119.79" y="401.19" width="272.43" height="70.81"/>
  <path class="cls-2" d="M170.28,456.71c-3.31-1.79-5.9-4.25-7.78-7.39-1.87-3.14-2.81-6.67-2.81-10.58s.94-7.45,2.81-10.59c1.88-3.14,4.46-5.6,7.78-7.39,3.31-1.79,7.03-2.68,11.15-2.68s7.83.89,11.12,2.68c3.29,1.79,5.88,4.25,7.78,7.39,1.9,3.14,2.84,6.67,2.84,10.59s-.94,7.44-2.84,10.58c-1.89,3.14-4.48,5.6-7.78,7.39-3.29,1.79-7,2.68-11.12,2.68s-7.84-.89-11.15-2.68M187.79,449.89c1.89-1.09,3.37-2.6,4.45-4.54,1.08-1.94,1.62-4.14,1.62-6.62s-.54-4.68-1.62-6.62c-1.08-1.94-2.56-3.45-4.45-4.54-1.89-1.08-4.01-1.63-6.36-1.63s-4.46.55-6.35,1.63c-1.89,1.08-3.38,2.6-4.46,4.54-1.08,1.94-1.62,4.15-1.62,6.62s.54,4.68,1.62,6.62c1.08,1.94,2.56,3.45,4.46,4.54,1.89,1.08,4.01,1.63,6.35,1.63s4.46-.54,6.36-1.63"/>
  <path class="cls-2" d="M237.19,430.97c2.33,2.28,3.49,5.67,3.49,10.16v17.58h-8.85v-16.21c0-2.43-.53-4.25-1.59-5.45-1.06-1.2-2.59-1.8-4.59-1.8-2.23,0-4.01.69-5.34,2.08-1.32,1.39-1.98,3.45-1.98,6.19v15.18h-8.86v-30.7h8.45v3.6c1.18-1.29,2.63-2.29,4.37-3,1.74-.7,3.65-1.06,5.73-1.06,3.78,0,6.84,1.14,9.16,3.42"/>
  <rect class="cls-2" x="248.68" y="416.36" width="8.86" height="42.35"/>
  <path class="cls-2" d="M266.22,422.3c-1.02-.95-1.53-2.13-1.53-3.54s.51-2.59,1.53-3.54c1.02-.95,2.35-1.43,3.98-1.43s2.95.46,3.97,1.37c1.02.91,1.53,2.05,1.53,3.42,0,1.48-.51,2.71-1.53,3.68-1.02.97-2.35,1.46-3.97,1.46s-2.95-.47-3.98-1.43M265.76,428.01h8.86v30.7h-8.86v-30.7Z"/>
  <path class="cls-2" d="M310.57,430.97c2.33,2.28,3.49,5.67,3.49,10.16v17.58h-8.85v-16.21c0-2.43-.53-4.25-1.59-5.45-1.06-1.2-2.59-1.8-4.59-1.8-2.23,0-4.01.69-5.34,2.08-1.32,1.39-1.98,3.45-1.98,6.19v15.18h-8.86v-30.7h8.45v3.6c1.18-1.29,2.63-2.29,4.37-3,1.74-.7,3.65-1.06,5.73-1.06,3.78,0,6.84,1.14,9.16,3.42"/>
  <path class="cls-2" d="M352.14,445.87h-23.1c.42,1.9,1.4,3.41,2.95,4.51,1.55,1.1,3.48,1.66,5.79,1.66,1.59,0,2.99-.24,4.23-.71,1.23-.47,2.37-1.23,3.43-2.26l4.71,5.14c-2.87,3.31-7.08,4.96-12.6,4.96-3.44,0-6.49-.67-9.14-2.03-2.65-1.35-4.69-3.22-6.13-5.62-1.44-2.4-2.15-5.12-2.15-8.16s.71-5.71,2.13-8.13c1.42-2.42,3.37-4.3,5.84-5.65,2.48-1.35,5.25-2.03,8.31-2.03s5.69.65,8.12,1.94c2.42,1.29,4.32,3.15,5.7,5.56,1.38,2.42,2.07,5.22,2.07,8.42,0,.11-.06.91-.17,2.4M331.43,436c-1.37,1.14-2.2,2.7-2.5,4.68h15.04c-.3-1.94-1.13-3.49-2.5-4.65-1.36-1.16-3.03-1.74-4.99-1.74s-3.69.57-5.05,1.71"/>
</svg>