<?xml version="1.0" encoding="UTF-8"?>
<svg id="Layer_1" data-name="Layer 1" xmlns="http://www.w3.org/2000/svg" viewBox="0 0 512 512">
  <defs>
    <style>
      .cls-1 {
        fill: #176874;
      }

      .cls-2 {
        fill: #dcc6b9;
      }
    </style>
  </defs>
  <polygon class="cls-1" points="233.23 159.87 233.23 272.75 215.72 255.25 215.72 177.37 233.23 159.87"/>
  <polygon class="cls-1" points="200.96 120.13 200.96 160.36 208.61 168 208.61 127.78 200.96 120.13"/>
  <polygon class="cls-1" points="200.96 170.13 200.96 240.49 208.61 247.81 208.61 177.78 200.96 170.13"/>
  <path class="cls-2" d="M226.29,79.12c-13.36,13.45-26.74,26.87-40.14,40.28l-7.56,1.1c14.03-14.03,28.1-28.06,42.18-42.05l5.53.67Z"/>
  <path class="cls-2" d="M330.53,120.04l-1.32-.19c-10.88-10.96-22.05-22.21-32.23-32.48v-.57c10.62,10.53,22.26,22.06,33.55,33.25Z"/>
  <path class="cls-2" d="M387.32,176.39c.08.41-130.08,130.73-130.19,131.2,0,0-.99,1-.99,1l-1.01-1L124.44,177.89l-1.5-1.49c16.5-16.64,33.06-33.28,49.67-49.91v6.45c-14.51,14.49-29.07,28.97-43.68,43.46l127.21,128.19,129.62-127.77s0,0,0,0h0s0,0,0,0c-1.27-1.28-21.85-22.02-46.16-46.52v-1.28c25.76,25.53,47.54,47.11,47.73,47.36Z"/>
  <polygon class="cls-1" points="233.23 45.41 233.23 137.49 215.72 154.99 215.72 62.91 233.23 45.41"/>
  <g>
    <polygon class="cls-1" points="240.34 203.49 240.34 206.38 267.81 210.38 267.81 207.48 240.34 203.49"/>
    <polygon class="cls-1" points="240.34 209.33 240.34 212.23 267.81 216.22 267.81 213.33 240.34 209.33"/>
    <polygon class="cls-1" points="275.84 220.34 267.81 219.27 267.81 219.17 240.34 215.18 240.34 218.07 296.98 226.31 296.98 223.41 275.84 220.34"/>
    <polygon class="cls-1" points="240.34 226.87 240.34 229.76 296.98 238 296.98 235.1 240.34 226.87"/>
    <polygon class="cls-1" points="240.34 221.02 240.34 223.92 296.98 232.15 296.98 229.26 240.34 221.02"/>
    <polygon class="cls-1" points="240.34 232.71 240.34 235.61 296.98 243.84 296.98 240.95 240.34 232.71"/>
    <polygon class="cls-1" points="240.34 180.11 240.34 183.01 296.98 191.24 296.98 188.34 240.34 180.11"/>
    <polyline class="cls-1" points="240.34 197.64 240.34 200.54 267.81 204.53 267.81 201.83"/>
    <polygon class="cls-1" points="240.34 174.26 240.34 177.16 296.98 185.4 296.98 182.5 240.34 174.26"/>
    <polygon class="cls-1" points="240.34 168.42 240.34 171.32 296.98 179.55 296.98 176.65 240.34 168.42"/>
    <polygon class="cls-1" points="240.34 191.8 240.34 194.7 296.98 202.93 296.98 200.03 240.34 191.8"/>
    <polygon class="cls-1" points="240.34 185.95 240.34 188.85 296.98 197.09 296.98 194.19 240.34 185.95"/>
    <polygon class="cls-1" points="240.34 267.78 240.34 270.68 276.32 275.91 278.85 273.38 240.34 267.78"/>
    <polygon class="cls-1" points="240.34 273.63 240.34 276.52 271.22 281.01 273.75 278.48 240.34 273.63"/>
    <polygon class="cls-1" points="240.34 279.47 240.34 279.87 243.26 282.79 266.12 286.11 268.65 283.59 240.34 279.47"/>
    <polygon class="cls-1" points="246.71 286.24 250.1 289.63 261.01 291.22 263.54 288.69 246.71 286.24"/>
    <polygon class="cls-1" points="253.55 293.08 256.35 295.88 258.44 293.79 253.55 293.08"/>
    <polygon class="cls-1" points="240.34 261.94 240.34 264.83 281.43 270.81 283.95 268.28 240.34 261.94"/>
    <polygon class="cls-1" points="240.34 250.25 240.34 253.14 291.63 260.6 294.16 258.07 240.34 250.25"/>
    <polygon class="cls-1" points="296.98 252.64 240.34 244.4 240.34 247.3 296.73 255.5 296.98 255.25 296.98 252.64"/>
    <polygon class="cls-1" points="240.34 238.56 240.34 241.45 296.98 249.69 296.98 246.79 240.34 238.56"/>
    <polygon class="cls-1" points="240.34 256.09 240.34 258.99 286.53 265.7 289.06 263.17 240.34 256.09"/>
    <polygon class="cls-1" points="240.34 92.44 240.34 95.33 296.98 103.57 296.98 100.67 240.34 92.44"/>
    <polygon class="cls-1" points="240.34 74.9 240.34 77.8 267.81 81.79 267.81 78.9 240.34 74.9"/>
    <polyline class="cls-1" points="296.98 79.07 296.98 77.29 240.34 69.06 240.34 71.95"/>
    <polygon class="cls-1" points="240.34 80.75 240.34 83.64 267.81 87.64 267.81 84.74 240.34 80.75"/>
    <polygon class="cls-1" points="240.34 86.59 240.34 89.49 267.81 93.48 267.81 90.58 240.34 86.59"/>
    <polyline class="cls-1" points="267.81 92.61 267.81 90.58 240.34 86.59 240.34 89.49"/>
    <polygon class="cls-1" points="240.34 63.21 240.34 66.11 296.98 74.34 296.98 71.45 240.34 63.21"/>
    <polygon class="cls-1" points="240.34 69.06 240.34 71.95 296.98 80.19 296.98 77.29 240.34 69.06"/>
    <polygon class="cls-1" points="240.34 98.28 240.34 101.18 296.98 109.41 296.98 106.52 240.34 98.28"/>
    <polygon class="cls-1" points="240.34 45.68 240.34 48.57 296.98 56.81 296.98 53.91 240.34 45.68"/>
    <polygon class="cls-1" points="296.98 50.96 296.98 48.26 240.34 40 240.34 42.73 296.98 50.96"/>
    <polygon class="cls-1" points="240.34 57.37 240.34 60.26 296.98 68.5 296.98 65.6 240.34 57.37"/>
    <polygon class="cls-1" points="240.34 51.52 240.34 54.42 296.98 62.65 296.98 59.76 240.34 51.52"/>
    <polygon class="cls-1" points="240.34 127.51 240.34 130.4 296.98 138.64 296.98 135.74 240.34 127.51"/>
    <polyline class="cls-1" points="296.98 144.48 296.98 141.58 240.34 133.35 240.34 136.25"/>
    <polygon class="cls-1" points="267.81 149.03 267.81 151.93 296.98 156.17 296.98 153.27 267.81 149.03"/>
    <polygon class="cls-1" points="267.81 154.88 267.81 157.77 296.98 162.02 296.98 159.12 267.81 154.88"/>
    <polygon class="cls-1" points="267.81 143.19 267.81 146.08 296.98 150.33 296.98 147.43 267.81 143.19"/>
    <polygon class="cls-1" points="240.34 156.73 240.34 159.63 296.98 167.86 296.98 164.96 240.34 156.73"/>
    <polyline class="cls-1" points="296.98 162.02 296.98 159.12 267.81 154.88 267.81 156.2"/>
    <polygon class="cls-1" points="240.34 115.82 240.34 118.71 296.98 126.95 296.98 124.05 240.34 115.82"/>
    <polygon class="cls-1" points="240.34 109.97 240.34 112.87 296.98 121.1 296.98 118.21 240.34 109.97"/>
    <polygon class="cls-1" points="240.34 104.13 240.34 107.02 296.98 115.26 296.98 112.36 240.34 104.13"/>
    <polygon class="cls-1" points="240.34 162.57 240.34 165.47 296.98 173.71 296.98 170.81 240.34 162.57"/>
    <polygon class="cls-1" points="240.34 121.66 240.34 124.56 296.98 132.79 296.98 129.9 240.34 121.66"/>
  </g>
  <g>
    <polygon class="cls-1" points="311.74 120.13 311.74 160.36 304.1 168 304.1 127.78 311.74 120.13"/>
    <polygon class="cls-1" points="311.74 170.13 311.74 240.49 304.1 248.13 304.1 177.78 311.74 170.13"/>
    <g>
      <polygon class="cls-1" points="314.85 178.28 314.85 179.78 339.6 183.38 339.6 181.88 314.85 178.28"/>
      <polygon class="cls-1" points="314.85 199.5 314.85 201 339.6 204.6 339.6 203.1 314.85 199.5"/>
      <polygon class="cls-1" points="314.85 202.53 314.85 204.03 339.6 207.63 339.6 206.13 314.85 202.53"/>
      <polygon class="cls-1" points="314.85 205.56 314.85 207.07 339.6 210.66 339.6 209.16 314.85 205.56"/>
      <polygon class="cls-1" points="314.85 208.59 314.85 210.1 337.94 213.45 339.25 212.14 314.85 208.59"/>
      <polygon class="cls-1" points="314.85 181.31 314.85 182.81 339.6 186.41 339.6 184.91 314.85 181.31"/>
      <polygon class="cls-1" points="314.85 187.37 314.85 188.88 326.85 190.62 326.85 189.12 314.85 187.37"/>
      <polygon class="cls-1" points="314.85 190.4 314.85 191.91 326.85 193.65 326.85 192.15 314.85 190.4"/>
      <polygon class="cls-1" points="314.85 193.33 314.85 194.83 326.85 196.57 326.85 195.07 314.85 193.33"/>
      <polygon class="cls-1" points="314.85 196.47 314.85 197.97 339.6 201.57 339.6 200.07 314.85 196.47"/>
      <polygon class="cls-1" points="314.85 226.78 314.85 228.29 322.06 229.33 323.37 228.02 314.85 226.78"/>
      <polygon class="cls-1" points="314.85 229.82 314.85 231.32 319.64 232.02 320.83 230.69 314.85 229.82"/>
      <polygon class="cls-1" points="314.85 232.85 314.85 234.35 317.25 234.7 318.43 233.37 314.85 232.85"/>
      <polygon class="cls-1" points="314.85 211.63 314.85 213.13 335.29 216.1 336.6 214.79 314.85 211.63"/>
      <polygon class="cls-1" points="314.85 235.88 314.85 237.38 316.04 236.05 314.85 235.88"/>
      <polygon class="cls-1" points="314.85 217.69 314.85 219.19 330 221.39 331.31 220.08 314.85 217.69"/>
      <polygon class="cls-1" points="314.85 214.66 314.85 216.16 332.65 218.75 333.96 217.44 314.85 214.66"/>
      <polygon class="cls-1" points="314.85 220.72 314.85 222.22 327.35 224.04 328.66 222.73 314.85 220.72"/>
      <polygon class="cls-1" points="314.85 223.75 314.85 225.26 324.71 226.69 326.02 225.38 314.85 223.75"/>
      <polygon class="cls-1" points="314.85 184.34 314.85 185.84 339.6 189.44 339.6 187.94 314.85 184.34"/>
      <polygon class="cls-1" points="314.85 132.8 314.85 134.31 326.85 136.05 326.85 134.55 314.85 132.8"/>
      <polygon class="cls-1" points="314.85 175.25 314.85 176.75 339.6 180.35 339.6 178.84 314.85 175.25"/>
      <polygon class="cls-1" points="314.85 141.9 314.85 143.4 339.6 147 339.6 145.5 314.85 141.9"/>
      <polygon class="cls-1" points="314.85 138.98 314.85 140.48 339.6 144.08 339.6 142.57 314.85 138.98"/>
      <polygon class="cls-1" points="339.6 133.37 314.85 129.77 314.85 131.27 336.79 134.46 339.6 134.84 339.6 133.37"/>
      <polygon class="cls-1" points="314.85 123.71 314.85 125.21 339.6 128.81 339.6 127.31 314.85 123.71"/>
      <polygon class="cls-1" points="314.85 120.68 314.85 122.18 339.6 125.78 339.6 124.27 314.85 120.68"/>
      <polygon class="cls-1" points="314.85 126.74 314.85 128.24 339.6 131.84 339.6 130.34 314.85 126.74"/>
      <polygon class="cls-1" points="339.6 122.74 339.6 121.38 314.85 117.77 314.85 119.15 339.6 122.74"/>
      <polygon class="cls-1" points="314.85 144.93 314.85 146.43 339.6 150.03 339.6 148.53 314.85 144.93"/>
      <polygon class="cls-1" points="314.85 135.83 314.85 137.34 326.85 139.08 326.85 137.58 314.85 135.83"/>
      <polygon class="cls-1" points="314.85 169.18 314.85 170.69 339.6 174.28 339.6 172.78 314.85 169.18"/>
      <polygon class="cls-1" points="314.85 147.96 314.85 149.46 339.6 153.06 339.6 151.56 314.85 147.96"/>
      <polygon class="cls-1" points="326.85 164.86 326.85 166.37 339.6 168.22 339.6 166.72 326.85 164.86"/>
      <polygon class="cls-1" points="326.85 167.79 326.85 169.29 339.6 171.14 339.6 169.64 326.85 167.79"/>
      <polygon class="cls-1" points="314.85 172.21 314.85 173.72 339.6 177.31 339.6 175.81 314.85 172.21"/>
      <polygon class="cls-1" points="314.85 150.99 314.85 152.5 339.6 156.09 339.6 154.59 314.85 150.99"/>
      <polygon class="cls-1" points="314.85 154.02 314.85 155.53 339.6 159.12 339.6 157.62 314.85 154.02"/>
      <polygon class="cls-1" points="314.85 157.06 314.85 158.56 339.6 162.16 339.6 160.65 314.85 157.06"/>
      <polygon class="cls-1" points="326.85 161.83 326.85 163.33 339.6 165.19 339.6 163.69 326.85 161.83"/>
    </g>
  </g>
  <g>
    <polygon class="cls-1" points="197.37 178.28 197.37 179.78 172.63 183.38 172.63 181.88 197.37 178.28"/>
    <polygon class="cls-1" points="197.37 199.5 197.37 201 172.63 204.6 172.63 203.1 197.37 199.5"/>
    <polygon class="cls-1" points="197.37 202.53 197.37 204.03 172.63 207.63 172.63 206.13 197.37 202.53"/>
    <polygon class="cls-1" points="197.37 205.56 197.37 207.07 172.63 210.66 172.63 209.16 197.37 205.56"/>
    <polygon class="cls-1" points="197.37 208.59 197.37 210.1 174.28 213.45 172.97 212.14 197.37 208.59"/>
    <polygon class="cls-1" points="197.37 181.31 197.37 182.81 172.63 186.41 172.63 184.91 197.37 181.31"/>
    <polygon class="cls-1" points="197.37 187.37 197.37 188.88 185.37 190.62 185.37 189.12 197.37 187.37"/>
    <polygon class="cls-1" points="197.37 190.4 197.37 191.91 185.37 193.65 185.37 192.15 197.37 190.4"/>
    <polygon class="cls-1" points="197.37 193.33 197.37 194.83 185.37 196.57 185.37 195.07 197.37 193.33"/>
    <polygon class="cls-1" points="197.37 196.47 197.37 197.97 172.63 201.57 172.63 200.07 197.37 196.47"/>
    <polygon class="cls-1" points="197.37 226.78 197.37 228.29 190.16 229.33 188.85 228.02 197.37 226.78"/>
    <polygon class="cls-1" points="197.37 229.82 197.37 231.32 192.58 232.02 191.39 230.69 197.37 229.82"/>
    <polygon class="cls-1" points="197.37 232.85 197.37 234.35 194.98 234.7 193.79 233.37 197.37 232.85"/>
    <polygon class="cls-1" points="197.37 211.63 197.37 213.13 176.93 216.1 175.62 214.79 197.37 211.63"/>
    <polygon class="cls-1" points="197.37 235.88 197.37 237.38 196.19 236.05 197.37 235.88"/>
    <polygon class="cls-1" points="197.37 217.69 197.37 219.19 182.22 221.39 180.91 220.08 197.37 217.69"/>
    <polygon class="cls-1" points="197.37 214.66 197.37 216.16 179.58 218.75 178.27 217.44 197.37 214.66"/>
    <polygon class="cls-1" points="197.37 220.72 197.37 222.22 184.87 224.04 183.56 222.73 197.37 220.72"/>
    <polygon class="cls-1" points="197.37 223.75 197.37 225.26 187.52 226.69 186.21 225.38 197.37 223.75"/>
    <polygon class="cls-1" points="197.37 184.34 197.37 185.84 172.63 189.44 172.63 187.94 197.37 184.34"/>
    <polygon class="cls-1" points="197.37 132.8 197.37 134.31 185.37 136.05 185.37 134.55 197.37 132.8"/>
    <polygon class="cls-1" points="197.37 175.25 197.37 176.75 172.63 180.35 172.63 178.84 197.37 175.25"/>
    <polygon class="cls-1" points="197.37 141.9 197.37 143.4 172.63 147 172.63 145.5 197.37 141.9"/>
    <polygon class="cls-1" points="197.37 138.98 197.37 140.48 172.63 144.08 172.63 142.57 197.37 138.98"/>
    <polygon class="cls-1" points="172.63 133.37 197.37 129.77 197.37 131.27 175.43 134.46 172.63 134.84 172.63 133.37"/>
    <polygon class="cls-1" points="197.37 123.71 197.37 125.21 172.63 128.81 172.63 127.31 197.37 123.71"/>
    <polygon class="cls-1" points="197.37 120.68 197.37 122.18 172.63 125.78 172.63 124.27 197.37 120.68"/>
    <polygon class="cls-1" points="197.37 126.74 197.37 128.24 172.63 131.84 172.63 130.34 197.37 126.74"/>
    <polygon class="cls-1" points="172.63 122.74 172.63 121.38 197.37 117.77 197.37 119.15 172.63 122.74"/>
    <polygon class="cls-1" points="197.37 144.93 197.37 146.43 172.63 150.03 172.63 148.53 197.37 144.93"/>
    <polygon class="cls-1" points="197.37 135.83 197.37 137.34 185.37 139.08 185.37 137.58 197.37 135.83"/>
    <polygon class="cls-1" points="197.37 169.18 197.37 170.69 172.63 174.28 172.63 172.78 197.37 169.18"/>
    <polygon class="cls-1" points="197.37 147.96 197.37 149.46 172.63 153.06 172.63 151.56 197.37 147.96"/>
    <polygon class="cls-1" points="185.37 164.86 185.37 166.37 172.63 168.22 172.63 166.72 185.37 164.86"/>
    <polygon class="cls-1" points="185.37 167.79 185.37 169.29 172.63 171.14 172.63 169.64 185.37 167.79"/>
    <polygon class="cls-1" points="197.37 172.21 197.37 173.72 172.63 177.31 172.63 175.81 197.37 172.21"/>
    <polygon class="cls-1" points="197.37 150.99 197.37 152.5 172.63 156.09 172.63 154.59 197.37 150.99"/>
    <polygon class="cls-1" points="197.37 154.02 197.37 155.53 172.63 159.12 172.63 157.62 197.37 154.02"/>
    <polygon class="cls-1" points="197.37 157.06 197.37 158.56 172.63 162.16 172.63 160.65 197.37 157.06"/>
    <polygon class="cls-1" points="185.37 161.83 185.37 163.33 172.63 165.19 172.63 163.69 185.37 161.83"/>
  </g>
  <g>
    <path class="cls-1" d="M206.61,398.85l14.52,17.13h-9l-12.19-14.52c2.03-.87,4.35-1.74,6.68-2.61Z"/>
    <path class="cls-1" d="M175.54,348.05h21.19c7.26.29,13.07,2.61,17.71,7.84,2.91,3.19,4.94,6.68,5.8,10.45,1.74,6.97.87,13.35-3.19,19.16-1.46,2.03-2.91,3.77-4.65,5.23-7.26,5.8-24.67,9.58-28.45,13.65-1.16,1.16-1.74,2.61-1.74,4.06v7.55h-6.68v-67.94ZM182.22,355.02v42.09c1.17-.87,2.62-1.45,4.35-2.03,1.46-.87,3.77-1.74,7.26-2.9,4.93-1.74,8.71-3.19,11.03-4.35,4.93-2.62,7.84-6.39,8.99-11.61.58-2.61.58-5.52,0-8.13-1.45-4.94-4.35-8.71-8.99-11.33-2.61-1.16-5.52-1.74-8.42-1.74h-14.23Z"/>
    <path class="cls-1" d="M54.41,348.05h6.68v42.68c.29-.58.58-.87,1.16-1.16,7.84-9,20.32-13.94,27.29-22.93,3.2-4.65,4.94-10.74,4.94-18.58h6.68c0,9.29-2.03,16.84-6.1,22.35-10.74,14.81-33.96,17.71-33.96,40.35v5.23h-6.68v-67.94ZM77.35,390.43l25.55,25.55h-9.58l-21.19-21.19c1.74-1.45,3.48-2.9,5.23-4.35Z"/>
    <path class="cls-1" d="M115.53,348.05h6.68v45.29c0,5.22,2.03,9.29,6.1,12.48,2.91,2.03,6.1,3.19,9.87,3.19,5.23,0,9.58-2.04,12.77-6.1,2.03-2.61,3.2-5.8,3.2-9.58v-45.29h6.67v45.29c0,6.68-2.32,12.19-7.25,16.84-4.35,3.77-9.58,5.8-15.39,5.8-6.68,0-12.19-2.62-16.84-7.55-3.77-4.35-5.8-9.29-5.8-15.09v-45.29Z"/>
    <path class="cls-1" d="M234.95,348.05h18.87c9,0,16.84,3.2,23.23,9.58,6.39,6.39,9.87,13.94,10.16,22.94v1.45c0,9-2.9,16.84-9.29,23.52-6.39,6.39-13.93,9.87-22.64,10.45h-20.32v-67.94ZM241.63,355.02v54h12.19c7.55,0,13.94-2.61,19.16-8.13,5.23-5.51,7.55-11.61,7.55-18.87,0-7.84-2.61-14.22-8.13-19.45-5.23-5.22-11.61-7.55-18.58-7.55h-12.19Z"/>
    <path class="cls-1" d="M322.82,348.05h0c8.71,0,16.55,2.91,22.93,9,.29.29.58.87.87,1.16l-4.65,4.64c-5.52-5.22-11.91-8.13-19.16-8.13h0c-7.55,0-14.51,1.45-15.97,9.87-3.19,18.87,45.88,11.03,38.03,36.87-2.9,9.87-13.06,14.52-22.64,14.52h0c-8.71,0-16.55-3.19-22.93-9.29-.29-.29-.58-.58-.87-.87l4.65-4.65c5.52,5.23,11.91,7.84,19.16,7.84h0c6.97,0,13.07-1.45,15.97-8.42,6.67-17.71-42.97-10.16-38.32-36.58,2.03-10.74,12.48-15.97,22.93-15.97Z"/>
    <path class="cls-1" d="M399.95,385.5l-15.97-37.45-28.16,66.48h7.26l.29-.58c3.19-6.97,9.87-9.29,16.55-11.9,8.13-2.9,16.26-5.8,20.03-16.55ZM384.56,366.92l8.13,18.87-.29.29c-2.9,5.23-8.71,7.26-14.81,9.87-2.32.87-4.64,1.74-6.68,2.61l-.58-.58,13.64-31.93.58.87ZM412.14,414.52l-9.29-21.77c-.58,1.16-1.16,2.03-2.03,2.9-.87,1.16-1.74,2.03-2.61,2.91l6.97,15.96h6.97Z"/>
    <polygon class="cls-1" points="412.02 348.05 431.18 348.05 438.43 348.05 457.6 348.05 457.6 355.02 438.43 355.02 438.43 415.98 438.15 415.98 431.47 415.98 431.18 415.98 431.18 355.02 412.02 355.02 412.02 348.05"/>
  </g>
  <g>
    <polygon class="cls-1" points="199.22 435.97 203.07 435.97 212.15 461.38 219.24 441.36 221.24 435.97 223.09 441.36 230.33 461.38 239.41 435.97 243.1 435.97 232.17 466.61 230.33 472 230.33 472 228.32 466.61 221.24 446.59 214 466.61 212.15 472 210.15 466.61 199.22 435.97"/>
    <path class="cls-1" d="M433.84,435.97h0c4.62,0,8.78,1.54,12.16,4.77.15.15.31.46.46.62l-2.46,2.46c-2.93-2.77-6.32-4.31-10.16-4.31h0c-4.01,0-7.7.77-8.47,5.24-1.69,10.01,24.33,5.85,20.17,19.56-1.54,5.23-6.93,7.7-12.01,7.7h0c-4.62,0-8.78-1.69-12.16-4.93-.15-.15-.31-.31-.46-.46l2.46-2.47c2.93,2.77,6.32,4.16,10.16,4.16h0c3.7,0,6.93-.77,8.47-4.47,3.54-9.39-22.79-5.39-20.33-19.4,1.08-5.7,6.62-8.47,12.16-8.47Z"/>
    <path class="cls-1" d="M355.39,435.97h11.24c3.85.15,6.93,1.39,9.39,4.16,1.54,1.69,2.62,3.54,3.08,5.54.92,3.69.46,7.08-1.69,10.16-.77,1.08-1.54,2-2.46,2.77-3.85,3.08-13.09,5.08-15.09,7.24-.61.62-.92,1.38-.92,2.16v4h-3.54v-36.03ZM371.87,462.91l7.7,9.09h-4.77l-6.47-7.7c1.08-.46,2.31-.93,3.54-1.39ZM358.94,439.66v22.33c.62-.46,1.39-.77,2.31-1.08.77-.46,2-.92,3.85-1.54,2.61-.93,4.62-1.69,5.85-2.31,2.61-1.39,4.16-3.39,4.77-6.16.31-1.39.31-2.93,0-4.31-.77-2.62-2.31-4.62-4.77-6.01-1.39-.62-2.93-.92-4.47-.92h-7.55Z"/>
    <path class="cls-1" d="M141.04,435.97c4.77,0,8.93,1.7,12.32,5.08,3.54,3.39,5.23,7.39,5.54,12.17v.77c0,4.77-1.7,8.93-5.08,12.47-3.23,3.39-7.24,5.23-12.01,5.54h-.77c-4.77,0-8.93-1.69-12.47-5.08-3.39-3.39-5.23-7.39-5.39-12.16v-.77c0-4.77,1.69-8.93,5.08-12.47,3.23-3.39,7.24-5.24,12.01-5.54h.77ZM141.04,439.66c-4.16,0-7.54,1.38-10.32,4.31-2.62,2.93-4,6.16-4,10.01,0,4.16,1.54,7.55,4.47,10.32,2.77,2.77,6,4,9.85,4s7.39-1.39,10.32-4.31c2.62-2.92,3.85-6.16,3.85-10.01,0-4.16-1.39-7.54-4.31-10.32-2.77-2.77-6.16-4-9.85-4Z"/>
    <path class="cls-1" d="M285.1,435.97h24.02v3.7h-20.48v13.7c5.85-.46,13.09,3.54,17.86.62v4c-8.16,3.23-17.86-4.47-21.4,1.69v-23.71ZM288.64,460.6v4.93h0v.15h0v2.62h20.48v3.7h-24.02v-8.62c.77-1.69,2-2.46,3.54-2.77Z"/>
    <polygon class="cls-1" points="54.4 435.8 64.57 435.8 68.42 435.8 78.58 435.8 78.58 439.5 68.42 439.5 68.42 471.84 68.26 471.84 64.72 471.84 64.57 471.84 64.57 439.5 54.4 439.5 54.4 435.8"/>
  </g>
</svg>