<?xml version="1.0" encoding="UTF-8"?>
<svg id="Layer_1" data-name="Layer 1" xmlns="http://www.w3.org/2000/svg" viewBox="0 0 512 512">
  <defs>
    <style>
      .cls-1 {
        fill: #142247;
      }
    </style>
  </defs>
  <g>
    <path class="cls-1" d="M246.07,241.93l-37.81-87.95h-24.53v1.32c2.24,0,4.58.59,7,1.77,2.42,1.18,4.84,4.68,7.26,10.51l-14.88,105.09c-.24,2-.59,3.81-1.06,5.43-.47,1.62-1.13,2.8-1.99,3.53-.85.74-2.78,1.1-5.78,1.1v1.32h19.87v-1.32c-3.97,0-5.95-1.69-5.95-5.08,0-1.87.12-3.53.35-4.99l13.19-96.08,43.46,99.61c.57-3.61.87-7.66.87-12.18v-22.09Z"/>
    <path class="cls-1" d="M240.68,128.15h36.27v1.37c-4.64,0-7.53.95-8.65,2.84-1.13,1.89-1.69,4.95-1.69,9.16v114.76c0,10.93-.37,19.08-1.1,24.45-.73,5.37-2.38,10.09-4.95,14.15-2.56,4.06-5.95,7.31-10.17,9.75-4.21,2.44-9.13,3.66-14.75,3.66s-10.87-.95-16.49-2.84l.18-1.56c1.65.55,4.09.82,7.33.82,7.94,0,13.98-2.9,18.13-8.7,4.15-5.8,6.23-15.72,6.23-29.77v-124.19c0-5.56-.69-9.04-2.08-10.44-1.39-1.4-4.14-2.11-8.27-2.11v-1.37Z"/>
    <path class="cls-1" d="M331.32,280.25c-1.03-1.37-1.96-4.51-2.78-9.42l-13.68-98.55c-.35-2.59-.53-4.62-.53-6.1,0-6.89,3.47-10.52,10.41-10.87v-1.32h-20.54l-34.2,79.28v13.44l30.44-70.29,13.35,95.54c.35,2.57.53,4.3.53,5.18,0,3.86-1.95,5.73-5.85,5.61v1.32h29.23v-1.32c-3.24-.29-5.37-1.12-6.4-2.5Z"/>
  </g>
  <g>
    <path class="cls-1" d="M66.1,420.16v-15.12h-17.01v15.12h-7.67v-36.02h7.67v14.15h17.01v-14.15h7.72v36.02h-7.72Z"/>
    <path class="cls-1" d="M111.57,402.17c0-10.86,7.94-18.63,18.8-18.63s18.85,7.78,18.85,18.63-7.94,18.63-18.85,18.63-18.8-7.78-18.8-18.63ZM141.32,402.17c0-6.75-4.32-11.83-10.96-11.83s-10.91,5.08-10.91,11.83,4.27,11.83,10.91,11.83,10.96-5.13,10.96-11.83Z"/>
    <path class="cls-1" d="M187.01,420.16v-36.02h7.67v29.27h15.23v6.75h-22.9Z"/>
    <path class="cls-1" d="M247.66,420.16v-36.02h14.2c11.29,0,19.12,7.18,19.12,18.04s-7.83,17.99-19.12,17.99h-14.2ZM273.15,402.17c0-6.37-3.89-11.29-11.29-11.29h-6.53v22.52h6.53c7.13,0,11.29-5.13,11.29-11.23Z"/>
    <path class="cls-1" d="M318.83,420.16v-36.02h7.67v36.02h-7.67Z"/>
    <path class="cls-1" d="M390.88,420.16l-17.17-23.49v23.49h-7.67v-36.02h7.89l16.69,22.63v-22.63h7.67v36.02h-7.4Z"/>
    <path class="cls-1" d="M436.07,402.17c0-11.4,8.64-18.63,19.17-18.63,7.51,0,12.21,3.78,14.91,8.05l-6.37,3.46c-1.62-2.54-4.7-4.7-8.53-4.7-6.53,0-11.29,5.02-11.29,11.83s4.75,11.83,11.29,11.83c3.19,0,6.21-1.4,7.67-2.75v-4.32h-9.51v-6.7h17.17v13.83c-3.67,4.1-8.8,6.81-15.34,6.81-10.53,0-19.17-7.35-19.17-18.69Z"/>
  </g>
  <path class="cls-1" d="M344.97,307.19c-23.17,23.45-55.76,37.36-88.97,37.65-16.58.23-33.21-3.01-48.6-9.29-15.42-6.25-29.41-15.84-41.15-27.58-11.67-11.83-20.96-25.96-27.15-41.32-3.1-7.68-5.44-15.66-6.97-23.78-1.56-8.12-2.36-16.38-2.33-24.64.1-16.51,3.3-33.01,9.58-48.3,6.3-15.27,15.52-29.36,27.16-41.14,11.63-11.78,25.6-21.3,40.9-27.74,15.29-6.46,31.9-9.87,48.54-9.9,16.64-.05,33.29,3.19,48.7,9.52,15.43,6.3,29.49,15.84,41.26,27.61,11.73,11.8,21.26,25.87,27.48,41.31,6.25,15.42,9.46,32.06,9.22,48.65-.32,33.21-14.22,65.81-37.69,88.97ZM344.75,306.97c11.54-11.68,20.87-25.59,26.97-40.82,6.11-15.22,9.16-31.61,8.95-47.94-.24-16.32-3.54-32.57-9.89-47.55-6.33-14.97-15.5-28.74-27.03-40.21-11.5-11.49-25.28-20.64-40.26-26.9-14.99-6.27-31.23-9.53-47.5-9.59-16.26-.03-32.55,3.07-47.65,9.2-15.11,6.12-28.98,15.29-40.62,26.77-11.62,11.49-21.09,25.23-27.35,40.38-6.32,15.11-9.62,31.5-9.52,47.89.04,8.19.86,16.38,2.5,24.4,1.66,8.01,4.11,15.86,7.31,23.38,6.37,15.06,15.77,28.75,27.36,40.2,5.78,5.74,12.11,10.92,18.89,15.42,6.78,4.51,14,8.33,21.49,11.51,15.01,6.32,31.28,9.58,47.6,9.81,16.33.19,32.73-2.86,47.95-8.97,15.23-6.11,29.13-15.45,40.81-27Z"/>
</svg>