<?xml version="1.0" encoding="UTF-8"?>
<svg id="Layer_1" data-name="Layer 1" xmlns="http://www.w3.org/2000/svg" xmlns:xlink="http://www.w3.org/1999/xlink" viewBox="0 0 512 512">
  <defs>
    <style>
      .cls-1 {
        fill: #ffc812;
      }

      .cls-2 {
        fill: url(#radial-gradient-5);
      }

      .cls-3 {
        fill: url(#radial-gradient-4);
      }

      .cls-4 {
        fill: url(#radial-gradient-3);
      }

      .cls-5 {
        fill: url(#radial-gradient-2);
      }

      .cls-6 {
        fill: url(#radial-gradient);
      }
    </style>
    <radialGradient id="radial-gradient" cx="297.22" cy="383.65" fx="297.22" fy="383.65" r="120.46" gradientUnits="userSpaceOnUse">
      <stop offset=".02" stop-color="#7466ae"/>
      <stop offset=".21" stop-color="#7466ae"/>
    </radialGradient>
    <radialGradient id="radial-gradient-2" cx="297.22" cy="367.26" fx="297.22" fy="367.26" r="111.32" xlink:href="#radial-gradient"/>
    <radialGradient id="radial-gradient-3" cx="297.22" cy="370.66" fx="297.22" fy="370.66" r="111.41" xlink:href="#radial-gradient"/>
    <radialGradient id="radial-gradient-4" cx="297.22" fx="297.22" r="120.46" xlink:href="#radial-gradient"/>
    <radialGradient id="radial-gradient-5" cx="298.83" cy="397.34" fx="298.83" fy="397.34" r="120.46" gradientTransform="translate(-.46 -17.11) rotate(.26)" xlink:href="#radial-gradient"/>
  </defs>
  <g>
    <path class="cls-1" d="M346.99,209.55h-1.36c-5.77,0-10.44-4.68-10.44-10.46h0c0-5.78,4.68-10.46,10.44-10.46h1.36c5.77,0,10.44,4.68,10.44,10.46h0c0,5.78-4.68,10.46-10.44,10.46Z"/>
    <g>
      <path class="cls-6" d="M368.68,239.87c-.4,28.87,22.88,52.4,51.66,52.4,10.87,0,20.96-3.36,29.28-9.1v29.16c0,6.15,4.99,11.14,11.14,11.14h0c6.15,0,11.14-4.99,11.14-11.14v-68.42c.08-1.09.11-2.2.11-3.31,0-28.78-23.53-52.07-52.4-51.66-27.83.39-50.53,23.1-50.92,50.92ZM390.95,240.6c0-16.21,13.18-29.39,29.39-29.39,16.2,0,29.38,13.18,29.38,29.39,0,16.2-13.18,29.38-29.38,29.38-16.21,0-29.39-13.18-29.39-29.38Z"/>
      <rect class="cls-5" x="335.17" y="218.29" width="22.28" height="73.99" rx="11.14" ry="11.14"/>
      <path class="cls-4" d="M322.2,228.24c0,3.08-1.24,5.86-3.26,7.88-2.02,2.01-4.8,3.26-7.88,3.26h-20.85v42.23c0,6.15-4.99,11.14-11.14,11.14s-11.14-4.99-11.14-11.14v-81.84c0-6.15,4.99-11.14,11.14-11.14,3.08,0,5.86,1.24,7.87,3.27,2.02,2.01,3.27,4.8,3.27,7.87v17.34h20.85c6.16,0,11.14,4.98,11.14,11.14Z"/>
      <path class="cls-3" d="M207.34,188.94c-28.87-.4-52.4,22.88-52.4,51.66,0,1.11.03,2.22.11,3.31v68.42c0,6.15,4.99,11.14,11.14,11.14h0c6.15,0,11.14-4.99,11.14-11.14v-29.16c8.32,5.74,18.41,9.1,29.28,9.1,28.78,0,52.07-23.53,51.66-52.4-.39-27.83-23.1-50.53-50.92-50.92ZM206.6,269.99c-16.2,0-29.38-13.18-29.38-29.38s13.18-29.39,29.38-29.39,29.39,13.18,29.39,29.39-13.18,29.38-29.39,29.38Z"/>
    </g>
  </g>
  <path class="cls-2" d="M92.07,209.92c16.92,0,30.69,13.77,30.69,30.69s-13.77,30.69-30.69,30.69-30.69-13.77-30.69-30.69,13.77-30.69,30.69-30.69M92.3,188.53c-28.76-.13-52.17,23.08-52.3,51.84-.13,28.76,23.08,52.17,51.84,52.3,28.76.13,52.17-23.08,52.3-51.84.13-28.76-23.08-52.17-51.84-52.3h0Z"/>
</svg>