<?xml version="1.0" encoding="UTF-8"?>
<svg id="Layer_1" data-name="Layer 1" xmlns="http://www.w3.org/2000/svg" xmlns:xlink="http://www.w3.org/1999/xlink" viewBox="0 0 512 512">
  <defs>
    <style>
      .cls-1, .cls-2, .cls-3 {
        fill: #231c4c;
      }

      .cls-2 {
        fill-rule: evenodd;
      }

      .cls-3 {
        clip-rule: evenodd;
      }

      .cls-4 {
        clip-path: url(#clippath);
      }
    </style>
    <clipPath id="clippath">
      <path class="cls-3" d="M223.02,203.2l-2.62,102.53-2.61-104.76,5.24,2.23ZM208.79,197.14l-2.64,108.59-2.61-110.82,5.25,2.23ZM194.55,191.08l-2.64,114.65-2.62-116.89,5.26,2.24ZM246.28,140.53l1.15,73.07-1.15-.5,2.6,92.64v-.15s0,.15,0,.15v-.51s2.61-89.9,2.61-89.9l-1.2-.51,1.19-76.72-5.2,2.44ZM260.51,133.84l1.31,85.87-1.3-.55,2.6,86.56v-.15s0,.15,0,.15v-.43s2.59-83.92,2.59-83.92l-1.32-.56,1.33-89.42-5.21,2.45ZM288.98,120.47l2.63,185.26,2.61-187.72-5.24,2.47ZM303.21,113.78l2.64,191.95,2.61-194.41-5.25,2.47ZM317.45,107.1l2.64,198.63,2.62-201.1-5.25,2.47ZM232.05,147.21l.98,60.26-1.01-.43,2.61,98.69v-.15.15s.01-.58.01-.58l2.61-95.89-1.05-.45,1.03-64.04-5.18,2.43ZM279.95,227.43l-2.58,77.93v.37s0-.15,0-.15v.15s-2.6-80.5-2.6-80.5l1.43.6-1.45-98.68,5.23-2.45-1.47,102.11,1.45.62Z"/>
    </clipPath>
  </defs>
  <g>
    <path class="cls-1" d="M39.95,345.64h-.65v-.68h16.49c2.65,0,4.9.41,6.74,1.23,1.84.82,3.28,1.86,4.3,3.12,1.02,1.26,1.76,2.59,2.2,3.99.44,1.4.66,2.78.66,4.14,0,1.73-.36,3.38-1.08,4.96-.72,1.58-1.83,2.95-3.33,4.09-1.5,1.14-3.37,1.92-5.61,2.33v.13c2.85,1.38,5.48,4.12,7.89,8.21l4.3,7.28c1.94,3.26,3.5,5.31,4.67,6.18s2.33,1.35,3.48,1.46v.52h-8.67c-.37-.47-.71-.93-1.03-1.37-.32-.44-.67-.91-1.04-1.41-.22-.32-.53-.81-.95-1.47-.42-.66-.67-1.03-.76-1.12l-5.69-9.41c-1.14-1.92-2.31-3.48-3.51-4.67s-2.31-2.05-3.35-2.57c-1.04-.52-1.97-.84-2.8-.97-.83-.13-1.81-.19-2.93-.19v17.43c0,3.38,1.72,5.13,5.17,5.24v.52h-15.17v-.52c.95-.04,1.79-.22,2.52-.53.73-.31,1.34-.85,1.83-1.62.49-.76.73-1.79.73-3.09v-36.02c0-1.9-.46-3.23-1.39-4.01-.93-.78-1.94-1.16-3.04-1.16ZM49.3,368.14h2.72c2.85,0,5.18-.41,7-1.23,1.82-.82,3.14-1.99,3.96-3.51s1.23-3.38,1.23-5.58c0-1.83-.37-3.63-1.1-5.38-.73-1.76-1.98-3.23-3.73-4.43-1.76-1.2-4.12-1.79-7.1-1.79-1.21,0-2.2.1-2.97.29v21.63Z"/>
    <path class="cls-1" d="M134.05,368.82c0,4.46-1.11,8.61-3.31,12.45-2.21,3.84-5.22,6.89-9.04,9.17-3.82,2.27-8.04,3.41-12.68,3.41s-8.93-1.14-12.81-3.41c-3.88-2.27-6.94-5.34-9.17-9.2-2.23-3.86-3.35-8.06-3.35-12.61,0-3.49.66-6.78,1.99-9.85,1.33-3.07,3.18-5.75,5.56-8.04,2.38-2.29,5.1-4.05,8.15-5.3,3.05-1.25,6.24-1.88,9.56-1.88s6.38.6,9.38,1.79c3,1.2,5.69,2.93,8.07,5.19s4.25,4.95,5.61,8.05c1.36,3.1,2.04,6.51,2.04,10.22ZM128.36,368.95c0-6.34-1.12-11.3-3.36-14.88-2.24-3.58-4.83-5.98-7.76-7.2-2.93-1.22-5.69-1.83-8.28-1.83-2,0-4.09.33-6.24.99-2.16.66-4.25,1.86-6.29,3.61s-3.71,4.2-5.03,7.37c-1.32,3.17-1.97,7.08-1.97,11.74,0,4.1.54,7.67,1.63,10.72,1.09,3.05,2.59,5.54,4.5,7.47s4.01,3.32,6.31,4.17c2.3.85,4.68,1.28,7.16,1.28,2.22,0,4.47-.39,6.74-1.18s4.35-2.07,6.24-3.85c1.89-1.78,3.42-4.19,4.59-7.24s1.76-6.78,1.76-11.17Z"/>
    <path class="cls-1" d="M183.07,344.96v.55c-1.21.15-2.21.56-3.01,1.23-.8.67-1.48,1.54-2.04,2.6-.56,1.07-1.2,2.49-1.91,4.25-.11.11-.22.37-.32.78l-13.78,39.48h-.45l-16.23-42.72c0-.09-.04-.21-.13-.39-.62-1.83-1.45-3.17-2.47-4.01-1.02-.84-2.3-1.25-3.83-1.23v-.55h15.65v.55c-1.32.13-2.37.39-3.17.78-.8.39-1.2,1.32-1.2,2.78,0,.39.17,1.19.52,2.39.04.11.08.22.11.34.03.12.06.21.08.28l12.51,33.44h.13l10.74-31.14c.75-2.13,1.13-3.74,1.13-4.82,0-1.7-.36-2.78-1.08-3.23-.72-.45-1.79-.72-3.22-.81v-.55h11.96Z"/>
    <path class="cls-1" d="M205.25,344.38l14.26,40.81c.75,2.11,1.47,3.64,2.13,4.59.67.95,1.31,1.55,1.92,1.79s1.4.42,2.34.5v.52h-15.55v-.52c1.6,0,2.82-.15,3.69-.45s1.29-1.12,1.29-2.46c0-.73-.21-1.71-.61-2.94-.09-.17-.13-.3-.13-.39l-4.24-12.64h-16.49l-3.78,11.71c-.52,1.6-.78,2.88-.78,3.85,0,1.34.33,2.23,1,2.67.67.44,1.62.66,2.85.66v.52h-11.19v-.52c1.59-.15,2.87-.76,3.83-1.83.96-1.07,1.79-2.69,2.51-4.87l13.45-41h3.49ZM194.42,371.48h15.17l-7.76-22.6h-.13l-7.28,22.6Z"/>
    <path class="cls-1" d="M233.61,345.64h-.65v-.68h16.49c2.65,0,4.9.41,6.74,1.23,1.84.82,3.28,1.86,4.3,3.12,1.02,1.26,1.76,2.59,2.2,3.99.44,1.4.66,2.78.66,4.14,0,1.73-.36,3.38-1.08,4.96-.72,1.58-1.83,2.95-3.33,4.09-1.5,1.14-3.37,1.92-5.61,2.33v.13c2.85,1.38,5.48,4.12,7.89,8.21l4.3,7.28c1.94,3.26,3.5,5.31,4.67,6.18s2.33,1.35,3.48,1.46v.52h-8.67c-.37-.47-.71-.93-1.03-1.37-.32-.44-.67-.91-1.04-1.41-.22-.32-.53-.81-.95-1.47-.42-.66-.67-1.03-.76-1.12l-5.69-9.41c-1.14-1.92-2.31-3.48-3.51-4.67s-2.31-2.05-3.35-2.57c-1.04-.52-1.97-.84-2.8-.97-.83-.13-1.81-.19-2.93-.19v17.43c0,3.38,1.72,5.13,5.17,5.24v.52h-15.17v-.52c.95-.04,1.79-.22,2.52-.53.73-.31,1.34-.85,1.83-1.62.49-.76.73-1.79.73-3.09v-36.02c0-1.9-.46-3.23-1.39-4.01-.93-.78-1.94-1.16-3.04-1.16ZM242.95,368.14h2.72c2.85,0,5.18-.41,7-1.23,1.82-.82,3.14-1.99,3.96-3.51s1.23-3.38,1.23-5.58c0-1.83-.37-3.63-1.1-5.38-.73-1.76-1.98-3.23-3.73-4.43-1.76-1.2-4.12-1.79-7.1-1.79-1.21,0-2.2.1-2.97.29v21.63Z"/>
    <path class="cls-1" d="M349.53,355.63h-.55c-.41-2.33-1.5-4.3-3.28-5.92-1.78-1.62-3.82-2.8-6.13-3.54-2.31-.74-4.46-1.12-6.47-1.12-2.74,0-5.31.58-7.71,1.73-2.4,1.15-4.48,2.78-6.22,4.88-1.75,2.1-3.1,4.62-4.07,7.57-.97,2.94-1.46,6.14-1.46,9.59s.47,6.44,1.41,9.3,2.31,5.33,4.11,7.44c1.8,2.1,3.89,3.69,6.26,4.77,2.37,1.08,5,1.62,7.89,1.62,2.41,0,5.07-.49,7.96-1.47,2.89-.98,5.5-2.61,7.83-4.9v1.84c-2.87,2.22-5.49,3.85-7.87,4.88-2.38,1.04-5.35,1.55-8.91,1.55-3.75,0-7.17-.68-10.27-2.05-3.09-1.37-5.71-3.22-7.84-5.55-2.13-2.33-3.75-4.95-4.85-7.86-1.1-2.91-1.65-5.91-1.65-8.99,0-4.64,1.14-8.94,3.43-12.92,2.28-3.98,5.38-7.12,9.28-9.44,3.9-2.32,8.14-3.48,12.71-3.48,2.82,0,5.83.42,9.02,1.26l3.36.94c.65.13,1.2.19,1.65.19.84,0,1.4-.12,1.68-.37.28-.25.5-.7.65-1.34h.52l-.45,11.38Z"/>
    <path class="cls-1" d="M373.33,344.96v.55c-1.42,0-2.63.4-3.62,1.2s-1.49,2.12-1.49,3.98v36.15c0,1.83.53,3.16,1.58,3.99,1.06.83,2.23,1.25,3.52,1.25v.52h-15.1v-.52c1.38,0,2.57-.4,3.57-1.21,1-.81,1.5-2.15,1.5-4.03v-36.15c0-1.98-.5-3.34-1.5-4.08-1-.73-2.19-1.1-3.57-1.1v-.55h15.1Z"/>
    <path class="cls-1" d="M422.77,354.24h-.52c-.24-3.1-1.14-5.11-2.72-6.03-1.57-.92-3.51-1.37-5.82-1.37h-9.47v40c0,3.38,1.72,5.13,5.17,5.24v.52h-15.17v-.52c1.42-.04,2.62-.46,3.61-1.25.98-.79,1.47-2.12,1.47-3.99v-40h-9.48c-2.31,0-4.24.46-5.8,1.37-1.56.92-2.47,2.93-2.73,6.03h-.52v-11.64h.52c.34.54.65.94.91,1.2.26.26.59.48,1,.66.41.18.89.31,1.44.39s1.2.11,1.96.11h30.85c2.05,0,3.64-.79,4.79-2.36h.52v11.64Z"/>
    <path class="cls-1" d="M472.69,344.96v.55c-1.42.02-2.69.36-3.8,1s-1.98,1.32-2.6,2.02-1.29,1.55-2,2.54l-11.12,16.75v19.08c0,1.7.51,2.98,1.54,3.83,1.02.85,2.26,1.3,3.7,1.34v.52h-15.1v-.52c1.53-.04,2.74-.48,3.64-1.31.89-.83,1.34-2.12,1.34-3.86v-18.27l-12.13-18.17c-1.29-1.96-2.45-3.27-3.48-3.91-1.02-.65-2.41-.99-4.16-1.04v-.55h16.91v.55c-1.72.07-2.83.44-3.31,1.12s-.73,1.32-.73,1.92c0,.69.42,1.66,1.26,2.91l9.93,14.71,8.8-13.26c1.34-1.98,2-3.5,2-4.56,0-.73-.18-1.3-.53-1.71-.36-.41-.72-.68-1.08-.81-.37-.13-.75-.24-1.16-.32v-.55h12.09Z"/>
  </g>
  <g>
    <path class="cls-2" d="M223.02,203.2l-2.62,102.53-2.61-104.76,5.24,2.23ZM208.79,197.14l-2.64,108.59-2.61-110.82,5.25,2.23ZM194.55,191.08l-2.64,114.65-2.62-116.89,5.26,2.24ZM246.28,140.53l1.15,73.07-1.15-.5,2.6,92.64v-.15s0,.15,0,.15v-.51s2.61-89.9,2.61-89.9l-1.2-.51,1.19-76.72-5.2,2.44ZM260.51,133.84l1.31,85.87-1.3-.55,2.6,86.56v-.15s0,.15,0,.15v-.43s2.59-83.92,2.59-83.92l-1.32-.56,1.33-89.42-5.21,2.45ZM288.98,120.47l2.63,185.26,2.61-187.72-5.24,2.47ZM303.21,113.78l2.64,191.95,2.61-194.41-5.25,2.47ZM317.45,107.1l2.64,198.63,2.62-201.1-5.25,2.47ZM232.05,147.21l.98,60.26-1.01-.43,2.61,98.69v-.15.15s.01-.58.01-.58l2.61-95.89-1.05-.45,1.03-64.04-5.18,2.43ZM279.95,227.43l-2.58,77.93v.37s0-.15,0-.15v.15s-2.6-80.5-2.6-80.5l1.43.6-1.45-98.68,5.23-2.45-1.47,102.11,1.45.62Z"/>
    <g class="cls-4">
      <rect class="cls-1" x="189.29" y="104.63" width="133.41" height="201.1"/>
    </g>
  </g>
</svg>