<?xml version="1.0" encoding="UTF-8"?>
<svg id="Layer_1" data-name="Layer 1" xmlns="http://www.w3.org/2000/svg" viewBox="0 0 512 512">
  <defs>
    <style>
      .cls-1 {
        font-family: SuperaGothic-Regular, 'Supera Gothic';
      }

      .cls-1, .cls-2, .cls-3 {
        fill: #253148;
      }

      .cls-1, .cls-3 {
        font-size: 61.41px;
      }

      .cls-4 {
        letter-spacing: 0em;
      }

      .cls-3 {
        font-family: SuperaGothic-Bold, 'Supera Gothic';
        font-weight: 700;
      }

      .cls-5 {
        letter-spacing: -.01em;
      }

      .cls-6 {
        letter-spacing: -.04em;
      }

      .cls-7 {
        letter-spacing: -.03em;
      }

      .cls-8 {
        letter-spacing: 0em;
      }

      .cls-9 {
        letter-spacing: 0em;
      }

      .cls-10 {
        letter-spacing: 0em;
      }

      .cls-11 {
        letter-spacing: 0em;
      }
    </style>
  </defs>
  <text class="cls-3" transform="translate(41.11 399.33)"><tspan class="cls-11" x="0" y="0">WH</tspan><tspan class="cls-8" x="101.26" y="0">I</tspan><tspan class="cls-10" x="116.67" y="0">T</tspan><tspan class="cls-8" x="147.06" y="0">E</tspan><tspan class="cls-4" x="179" y="0"> </tspan></text>
  <text class="cls-1" transform="translate(234.54 399.33)"><tspan class="cls-6" x="0" y="0">T</tspan><tspan class="cls-7" x="27.33" y="0">O</tspan><tspan class="cls-9" x="75.47" y="0">W</tspan><tspan class="cls-10" x="134.97" y="0">E</tspan><tspan class="cls-5" x="166.71" y="0">R</tspan><tspan x="203.62" y="0">S</tspan></text>
  <polygon class="cls-2" points="191.81 197.36 193.1 330.85 193.59 330.85 194.88 197.36 191.81 197.36"/>
  <polygon class="cls-2" points="198.22 192.02 199.51 330.85 200 330.85 201.28 192.02 198.22 192.02"/>
  <polygon class="cls-2" points="204.62 186.68 205.92 330.85 206.39 330.85 207.69 186.68 204.62 186.68"/>
  <polygon class="cls-2" points="211.03 181.34 212.34 330.85 212.79 330.85 214.1 181.34 211.03 181.34"/>
  <polygon class="cls-2" points="217.44 176 218.75 330.85 219.19 330.85 220.51 176 217.44 176"/>
  <polygon class="cls-2" points="223.84 170.66 225.16 330.85 225.6 330.85 226.91 170.66 223.84 170.66"/>
  <polygon class="cls-2" points="232.69 165.33 231.78 208.14 230.88 165.33 230.25 165.33 231.58 330.85 231.99 330.85 233.32 165.33 232.69 165.33"/>
  <polygon class="cls-2" points="239.13 159.99 238.19 204.34 237.25 159.99 236.65 159.99 237.98 330.85 238.4 330.85 239.72 159.99 239.13 159.99"/>
  <polygon class="cls-2" points="245.57 154.65 244.6 200.54 243.63 154.65 243.06 154.65 244.39 330.85 244.8 330.85 246.13 154.65 245.57 154.65"/>
  <polygon class="cls-2" points="252 149.31 251 196.73 250 149.31 249.47 149.31 250.81 330.85 251.2 330.85 252.54 149.31 252 149.31"/>
  <polygon class="cls-2" points="258.44 143.97 257.41 192.93 256.38 143.97 255.88 143.97 257.22 330.85 257.6 330.85 258.95 143.97 258.44 143.97"/>
  <polygon class="cls-2" points="326.47 222.91 327.71 330.85 328.29 330.85 329.54 222.91 326.47 222.91"/>
  <polygon class="cls-2" points="320.05 217.72 321.31 330.85 321.86 330.85 323.12 217.72 320.05 217.72"/>
  <polygon class="cls-2" points="313.67 212.53 314.93 330.85 315.47 330.85 316.74 212.53 313.67 212.53"/>
  <polygon class="cls-2" points="307.25 207.35 308.53 330.85 309.05 330.85 310.32 207.35 307.25 207.35"/>
  <polygon class="cls-2" points="300.84 202.16 302.13 330.85 302.61 330.85 303.91 202.16 300.84 202.16"/>
  <polygon class="cls-2" points="296.54 196.93 296.05 243.76 295.56 196.93 294.51 196.93 295.8 330.85 296.29 330.85 297.58 196.93 296.54 196.93"/>
  <polygon class="cls-2" points="289.91 191.79 289.48 227.14 289.05 191.79 288.04 191.79 289.33 330.85 289.81 330.85 291.11 191.79 289.91 191.79"/>
  <polygon class="cls-2" points="283.61 186.54 283.18 218.69 282.74 186.54 281.64 186.54 282.94 330.85 283.41 330.85 284.71 186.54 283.61 186.54"/>
  <polygon class="cls-2" points="271.08 176.23 270.44 222.17 269.8 176.23 268.9 176.23 270.22 330.85 270.66 330.85 271.97 176.23 271.08 176.23"/>
  <polygon class="cls-2" points="232.69 165.33 233.32 135.43 230.25 135.43 230.88 165.33 231.78 208.14 232.69 165.33"/>
  <polygon class="cls-2" points="239.13 159.99 239.72 131.63 236.65 131.63 237.25 159.99 238.19 204.34 239.13 159.99"/>
  <polygon class="cls-2" points="245.57 154.65 246.13 127.83 243.06 127.83 243.63 154.65 244.6 200.54 245.57 154.65"/>
  <polygon class="cls-2" points="252 149.31 252.54 124.03 249.47 124.03 250 149.31 251 196.73 252 149.31"/>
  <polygon class="cls-2" points="258.44 143.97 258.95 120.22 255.88 120.22 256.38 143.97 257.41 192.93 258.44 143.97"/>
  <polygon class="cls-2" points="262.65 116.42 264.01 330.85 264.36 330.85 265.72 116.42 262.65 116.42"/>
  <polygon class="cls-2" points="271.08 176.23 271.97 112.62 268.9 112.62 269.8 176.23 270.44 222.17 271.08 176.23"/>
  <polygon class="cls-2" points="277.38 181.42 276.86 218.37 276.34 181.42 275.32 181.42 276.63 330.85 277.09 330.85 278.39 181.42 277.38 181.42"/>
  <polygon class="cls-2" points="277.38 181.42 278.39 108.82 275.32 108.82 276.34 181.42 276.86 218.37 277.38 181.42"/>
  <polygon class="cls-2" points="283.61 186.54 284.71 105.05 281.64 105.05 282.74 186.54 283.18 218.69 283.61 186.54"/>
  <polygon class="cls-2" points="289.91 191.79 291.02 101.22 287.95 101.22 289.05 191.79 289.48 227.14 289.91 191.79"/>
  <polygon class="cls-2" points="296.54 196.93 297.58 97.38 294.51 97.38 295.56 196.93 296.05 243.76 296.54 196.93"/>
</svg>